<svg xmlns="http://www.w3.org/2000/svg" viewBox="0 0 64 64">
  <circle cx="32" cy="33" r="27" fill="#3f7d20"/>
  <circle cx="32" cy="33" r="23.5" fill="#eef4b8"/>
  <circle cx="32" cy="33" r="21" fill="#c9e24a"/>
  <g stroke="#eef4b8" stroke-width="2.2">
    <line x1="32" y1="33" x2="32" y2="12"/>
    <line x1="32" y1="33" x2="50.2" y2="22.5"/>
    <line x1="32" y1="33" x2="50.2" y2="43.5"/>
    <line x1="32" y1="33" x2="32" y2="54"/>
    <line x1="32" y1="33" x2="13.8" y2="43.5"/>
    <line x1="32" y1="33" x2="13.8" y2="22.5"/>
  </g>
  <path d="M32,33 L32,12 A21,21 0 0 1 53,33 Z" fill="#1c2410"/>
  <g fill="none" stroke-linecap="round">
    <path d="M32,15.5 A17.5,17.5 0 0 1 49.5,33" stroke="#ff6a1a" stroke-width="4"/>
    <path d="M32,21.5 A11.5,11.5 0 0 1 43.5,33" stroke="#f9c80e" stroke-width="4"/>
    <path d="M32,27.5 A5.5,5.5 0 0 1 37.5,33" stroke="#c9ccd4" stroke-width="4"/>
  </g>
  <g transform="translate(11,9) rotate(-35)">
    <rect x="-7" y="-2" width="5" height="4" fill="#3a3f47"/>
    <rect x="-1" y="-1.5" width="3.5" height="3" fill="#565d66"/>
    <rect x="3.5" y="-2" width="5" height="4" fill="#3a3f47"/>
  </g>
  <path d="M17,15 a4,4 0 0 1 4,4" fill="none" stroke="#3f7d20" stroke-width="1.4"/>
  <path d="M15.5,13 a7,7 0 0 1 7,7" fill="none" stroke="#3f7d20" stroke-width="1.4" opacity="0.7"/>
</svg>